<svg width="834" height="237" viewBox="0 0 834 237" fill="none" xmlns="http://www.w3.org/2000/svg">
<g clip-path="url(#clip0_1_51)">
<path d="M113.977 34.4672L1.05534 54.5205H0L1.05534 235H828.444L822.112 225.451L823.168 217.811L821.057 209.217L817.891 202.533L821.057 195.848L818.946 190.119V184.389L817.891 178.66L816.836 174.84L814.725 171.02L813.67 166.246L812.614 163.381L813.67 158.607L812.614 153.832L810.504 148.102L808.393 142.373L809.448 137.598L807.338 130.914L803.116 125.184L801.006 120.41V114.68L798.895 110.861L796.784 107.041L794.673 105.131L792.563 97.4918L790.452 93.6721L788.341 89.8525L786.231 84.1229L782.009 80.3033L777.788 78.3934L773.567 75.5287L769.345 72.6639V68.8443L773.567 65.9795V64.0697V60.25L769.345 58.3402L773.567 54.5205L771.456 49.7459L767.235 45.9262L763.013 41.1516L758.792 39.2418H746.128L744.017 38.2869H735.574L729.242 37.332L725.021 35.4221L720.799 34.4672H713.412L708.135 33.5123L701.803 31.6025L697.582 29.6926L690.195 28.7377H677.53L676.475 30.6475L673.309 32.5574L670.143 34.4672H668.032L660.645 32.5574L653.258 30.6475H646.925L642.704 34.4672H634.261L632.151 36.377L630.04 34.4672H613.154V37.332L612.099 38.2869H609.988L608.933 36.377L607.878 34.4672H605.767L602.601 36.377L600.49 38.2869H595.214L592.048 36.377H583.605L579.383 34.4672H568.83L564.609 32.5574H551.945L545.612 34.4672L544.557 32.5574V30.6475V28.7377L543.502 26.8279H541.391L539.28 28.7377L537.17 30.6475L535.059 32.5574L531.893 34.4672H509.731L503.399 32.5574L494.956 30.6475H482.292V26.8279H480.181V28.7377H478.07V30.6475H465.406H458.019L454.853 28.7377L450.632 26.8279H444.3L442.189 24.918H435.857L429.525 26.8279H414.75L390.477 24.918L389.422 23.0082L387.311 19.1885L383.09 17.2787V7.72951H387.311V5.81967V3.90984H383.09V2H380.979V3.90984H374.647V5.81967H376.758V7.72951H378.868V19.1885L370.425 30.6475H351.429L346.153 34.4672L315.548 41.1516L284.943 38.2869L255.393 41.1516H168.855L143.527 38.2869L130.863 34.4672H113.977Z" fill="#252830" stroke="#8CB348" stroke-width="4"/>
<path d="M8 56H1V233H8V56Z" fill="#252830"/>
<path d="M7 56H0V237H7V56Z" fill="#252830"/>
<path d="M8 233H1V237H8V233Z" fill="#252830"/>
<path d="M8 233H1V237H8V233Z" fill="#8CB348"/>
<path d="M1 235H827" stroke="#252830" stroke-width="4"/>
<path d="M819.5 225L831 238.5" stroke="#252830"/>
<path d="M819 225L830 239" stroke="#252830"/>
<path d="M817 225L828.5 238.5" stroke="#252830"/>
<path d="M818 225L829.5 238.5" stroke="#252830"/>
</g>
<defs>
<clipPath id="clip0_1_51">
<rect width="834" height="237" fill="white"/>
</clipPath>
</defs>
</svg>
